<?xml version="1.0" encoding="UTF-8"?>
<svg width="140px" height="45px" viewBox="0 0 140 45" version="1.1" xmlns="http://www.w3.org/2000/svg" xmlns:xlink="http://www.w3.org/1999/xlink">
    <!-- Generator: Sketch 46.2 (44496) - http://www.bohemiancoding.com/sketch -->
    <title>logo/base</title>
    <desc>Created with Sketch.</desc>
    <defs></defs>
    <g id="Symbols" stroke="none" stroke-width="1" fill="none" fill-rule="evenodd">
        <g id="logo/base" fill-rule="nonzero">
            <g id="Group" transform="translate(0.000000, 14.817073)" fill="#120B17">
                <g id="Shape">
                    <path d="M6.00339921,7.25213415 C4.51043478,7.25213415 3.29470356,8.45670732 3.29470356,9.93841463 L3.29470356,24.0662195 C3.29470356,25.2828659 2.69873518,25.2828659 2.44252964,25.2828659 C1.20023715,25.2828659 0.263952569,26.2393902 0.263952569,27.5065244 C0.263952569,28.8954878 1.40996047,29.7592683 3.25375494,29.7592683 L3.31573123,29.7592683 C6.79581028,29.7592683 8.7115415,27.7479878 8.7115415,24.0969512 L8.7115415,9.93841463 C8.71209486,8.45670732 7.49636364,7.25213415 6.00339921,7.25213415 Z"></path>
                    <path d="M6.00339921,0.375365854 C4.2426087,0.375365854 3.01304348,1.41695122 3.01304348,2.9079878 L3.01304348,2.96945122 C3.01304348,4.47804878 4.2426087,5.53170732 6.00339921,5.53170732 C7.76363636,5.53170732 8.99375494,4.47804878 8.99375494,2.96945122 L8.99375494,2.9079878 C8.99375494,1.41695122 7.76363636,0.375365854 6.00339921,0.375365854 Z"></path>
                    <path d="M20.6541502,7.12920732 C15.743083,7.12920732 12.04,10.9882317 12.04,16.105061 L12.04,16.1659756 C12.04,21.33 15.8598419,25.0787195 21.1233992,25.0787195 C23.4773913,25.0787195 25.5049012,24.3751829 27.1594466,22.9796341 C27.4942292,22.6767073 27.8937549,22.1454878 27.8937549,21.339878 C27.8937549,20.0914024 26.9574704,19.1491463 25.7151779,19.1491463 C25.1806324,19.1491463 24.7888538,19.2753659 24.36,19.5865244 C23.3971542,20.2933537 22.358498,20.6379878 21.1853755,20.6379878 C19.3238735,20.6379878 18.0367589,19.7215244 17.5243478,18.0471951 L26.495415,18.0471951 C27.9745455,18.0471951 29.0486166,16.9556707 29.0486166,15.4520122 C29.04917,12.2345122 26.7704348,7.12920732 20.6541502,7.12920732 Z M20.6541502,11.5721341 C22.2766008,11.5721341 23.4281423,12.6356707 23.7900395,14.440061 L17.4396838,14.440061 C17.8790514,12.6104268 19.0350198,11.5721341 20.6541502,11.5721341 Z"></path>
                    <path d="M35.272253,0.792439024 C33.7787352,0.792439024 32.5635573,1.99865854 32.5635573,3.48036585 L32.5635573,22.2075 C32.5635573,23.6892073 33.7787352,24.8943293 35.272253,24.8943293 C36.7657708,24.8943293 37.981502,23.6897561 37.981502,22.2075 L37.981502,3.48036585 C37.981502,1.99865854 36.7657708,0.792439024 35.272253,0.792439024 Z"></path>
                    <path d="M52.4225296,7.12920732 C50.4237945,7.12920732 48.7947036,7.84536585 47.4655336,9.31280488 C47.18,8.13182927 46.1070356,7.25213415 44.8309881,7.25213415 C43.3363636,7.25213415 42.1211858,8.45670732 42.1211858,9.93841463 L42.1211858,27.1657317 C42.1211858,28.6468902 43.3363636,29.852561 44.8309881,29.852561 C46.3245059,29.852561 47.5396838,28.647439 47.5396838,27.1657317 L47.5396838,23.0586585 C48.9009486,24.3916463 50.4719368,25.0183537 52.4225296,25.0183537 C54.5468775,25.0183537 56.5146245,24.197378 57.9633202,22.7052439 C59.5442688,21.0770122 60.3798419,18.7929878 60.3798419,16.1056098 L60.3798419,16.0414024 C60.3792885,10.1903049 56.3768379,7.12920732 52.4225296,7.12920732 Z M54.963004,16.1056098 C54.963004,18.5685366 53.3820553,20.3570122 51.204585,20.3570122 C49.0442688,20.3570122 47.4771542,18.5685366 47.4771542,16.1056098 L47.4771542,16.0414024 C47.4771542,13.5784756 49.0442688,11.79 51.204585,11.79 C53.3466403,11.79 54.963004,13.6168902 54.963004,16.0414024 L54.963004,16.1056098 Z"></path>
                </g>
                <path d="M64.1349407,9.72164634 C64.1349407,8.66963415 64.9467194,7.83219512 66.00917,7.83219512 C67.0710672,7.83219512 67.9143874,8.66963415 67.9143874,9.72164634 L67.9143874,10.4965244 C68.9768379,9.04115854 70.413913,7.67689024 72.9444269,7.67689024 C75.3183399,7.67689024 77.0066403,8.82439024 77.8809486,10.5590854 C79.1924111,8.82439024 80.941581,7.67689024 83.4405534,7.67689024 C87.0351779,7.67689024 89.2209486,9.93841463 89.2209486,13.9357317 L89.2209486,22.6728659 C89.2209486,23.7259756 88.40917,24.5326829 87.346166,24.5326829 C86.2837154,24.5326829 85.4409486,23.7259756 85.4409486,22.6728659 L85.4409486,15.0821341 C85.4409486,12.4792683 84.2224506,11.0859146 82.0975494,11.0859146 C80.0362846,11.0859146 78.567668,12.5105488 78.567668,15.1435976 L78.567668,22.6734146 C78.567668,23.7265244 77.7249012,24.5332317 76.6928854,24.5332317 C75.6309881,24.5332317 74.787668,23.7265244 74.787668,22.6734146 L74.787668,15.0508537 C74.787668,12.5105488 73.5376285,11.0859146 71.4453755,11.0859146 C69.3509091,11.0859146 67.9143874,12.6340244 67.9143874,15.1435976 L67.9143874,22.6734146 C67.9143874,23.7265244 67.0710672,24.5332317 66.00917,24.5332317 C64.9771542,24.5332317 64.1349407,23.7265244 64.1349407,22.6734146 L64.1349407,9.72164634 L64.1349407,9.72164634 Z" id="Shape"></path>
                <path d="M94.0921739,3.1697561 C94.0921739,2.05518293 95.0284585,1.34121951 96.2469565,1.34121951 C97.4660079,1.34121951 98.4022925,2.05518293 98.4022925,3.1697561 L98.4022925,3.35579268 C98.4022925,4.47091463 97.4665613,5.2145122 96.2469565,5.2145122 C95.0290119,5.2145122 94.0921739,4.47091463 94.0921739,3.35579268 L94.0921739,3.1697561 Z M94.3727273,9.72164634 C94.3727273,8.66963415 95.1845059,7.83219512 96.2469565,7.83219512 C97.3099605,7.83219512 98.1527273,8.66963415 98.1527273,9.72164634 L98.1527273,22.6734146 C98.1527273,23.7265244 97.3099605,24.5332317 96.2469565,24.5332317 C95.2160474,24.5332317 94.3727273,23.7265244 94.3727273,22.6734146 L94.3727273,9.72164634 Z" id="Shape"></path>
            </g>
            <path d="M120.75747,0.513109756 C109.817549,0.513109756 101.956522,5.9120122 101.956522,16.0820122 C101.956522,21.3892683 104.099684,25.3964634 107.702609,28.0152439 C107.464111,29.3026829 106.81502,31.6585976 105.429407,34.0880488 C103.682451,37.1513415 110.95913,33.9585366 114.362846,30.9495732 C116.332806,31.4138415 118.478182,31.6498171 120.758024,31.6498171 C131.697391,31.6498171 139.558419,26.3041463 139.558419,16.0814634 C139.557312,5.85713415 131.696285,0.513109756 120.75747,0.513109756 Z M123.760553,23.2309756 C123.760553,24.6671341 122.646087,25.749878 121.166957,25.749878 C119.687273,25.749878 118.572806,24.6671341 118.572806,23.2309756 L118.572806,23.1771951 C118.572806,21.7404878 119.687273,20.6560976 121.166957,20.6560976 C122.646087,20.6560976 123.760553,21.7404878 123.760553,23.1771951 L123.760553,23.2309756 Z M123.812569,8.17189024 L122.671542,18.0751829 C122.57581,18.9312805 121.985929,19.4833537 121.16751,19.4833537 C120.349644,19.4833537 119.758656,18.9312805 119.663478,18.0746341 L118.520791,8.17463415 C118.469881,7.68128049 118.596601,7.24115854 118.877154,6.93439024 C119.121186,6.66493902 119.472569,6.51731707 119.866008,6.51731707 L122.469012,6.51731707 C122.861897,6.51731707 123.213834,6.66493902 123.458419,6.93439024 C123.737312,7.2422561 123.864585,7.68182927 123.812569,8.17189024 Z" id="Shape" fill="#9032C8"></path>
        </g>
    </g>
</svg>