<?xml version="1.0" encoding="utf-8"?>
<!-- Generator: Adobe Illustrator 16.0.0, SVG Export Plug-In . SVG Version: 6.00 Build 0)  -->
<!DOCTYPE svg PUBLIC "-//W3C//DTD SVG 1.1//EN" "http://www.w3.org/Graphics/SVG/1.1/DTD/svg11.dtd">
<svg version="1.1" id="Layer_1" xmlns="http://www.w3.org/2000/svg" xmlns:xlink="http://www.w3.org/1999/xlink" x="0px" y="0px"
	 width="512px" height="512px" viewBox="0 0 512 512" enable-background="new 0 0 512 512" xml:space="preserve">
<path fill="#FFFFFF" d="M256,31.674c-139.794,0-240.246,69.565-240.246,200.607c0,68.389,27.393,120.021,73.43,153.761
	c-3.045,16.593-11.337,46.942-29.049,78.257c-22.325,39.475,70.663-1.678,114.155-40.441c25.166,5.979,52.579,9.03,81.71,9.03
	c139.794,0,240.246-68.882,240.246-200.605C496.246,100.534,395.794,31.674,256,31.674z M294.386,324.398
	c0,18.51-14.245,32.463-33.138,32.463c-18.906,0-33.146-13.953-33.146-32.463v-0.685c0-18.519,14.24-32.487,33.146-32.487
	c18.893,0,33.138,13.969,33.138,32.487V324.398z M295.051,130.363l-14.59,127.606c-1.225,11.025-8.759,18.145-19.213,18.145
	c-10.453,0-18.006-7.118-19.219-18.156l-14.606-127.561c-0.644-6.354,0.97-12.025,4.553-15.976c3.12-3.476,7.605-5.377,12.637-5.377
	h33.258c5.021,0,9.518,1.902,12.645,5.377C294.092,118.382,295.705,124.047,295.051,130.363z"/>
</svg>
