<?xml version="1.0" encoding="UTF-8"?>
<svg width="39px" height="36px" viewBox="0 0 39 36" version="1.1" xmlns="http://www.w3.org/2000/svg" xmlns:xlink="http://www.w3.org/1999/xlink">
    <!-- Generator: Sketch 47.1 (45422) - http://www.bohemiancoding.com/sketch -->
    <title>logo/icon/purple</title>
    <desc>Created with Sketch.</desc>
    <defs></defs>
    <g id="Symbols" stroke="none" stroke-width="1" fill="none" fill-rule="evenodd">
        <g id="menu/mobile/white" transform="translate(-23.000000, -12.000000)" fill-rule="nonzero" fill="#9032C8">
            <g id="logo/icon/purple" transform="translate(24.000000, 12.000000)">
                <path d="M18.7574704,0.513109756 C7.81754941,0.513109756 -0.0434782609,5.9120122 -0.0434782609,16.0820122 C-0.0434782609,21.3892683 2.09968379,25.3964634 5.7026087,28.0152439 C5.46411067,29.3026829 4.81501976,31.6585976 3.42940711,34.0880488 C1.68245059,37.1513415 8.95913043,33.9585366 12.3628458,30.9495732 C14.3328063,31.4138415 16.4781818,31.6498171 18.7580237,31.6498171 C29.6973913,31.6498171 37.558419,26.3041463 37.558419,16.0814634 C37.5573123,5.85713415 29.6962846,0.513109756 18.7574704,0.513109756 Z M21.7605534,23.2309756 C21.7605534,24.6671341 20.646087,25.749878 19.1669565,25.749878 C17.6872727,25.749878 16.5728063,24.6671341 16.5728063,23.2309756 L16.5728063,23.1771951 C16.5728063,21.7404878 17.6872727,20.6560976 19.1669565,20.6560976 C20.646087,20.6560976 21.7605534,21.7404878 21.7605534,23.1771951 L21.7605534,23.2309756 Z M21.8125692,8.17189024 L20.6715415,18.0751829 C20.5758103,18.9312805 19.9859289,19.4833537 19.1675099,19.4833537 C18.3496443,19.4833537 17.7586561,18.9312805 17.6634783,18.0746341 L16.5207905,8.17463415 C16.4698814,7.68128049 16.5966008,7.24115854 16.8771542,6.93439024 C17.1211858,6.66493902 17.4725692,6.51731707 17.8660079,6.51731707 L20.4690119,6.51731707 C20.8618972,6.51731707 21.213834,6.66493902 21.458419,6.93439024 C21.7373123,7.2422561 21.864585,7.68182927 21.8125692,8.17189024 Z" id="Shape"></path>
            </g>
        </g>
    </g>
</svg>