<?xml version="1.0" encoding="utf-8"?>
<!-- Generator: Adobe Illustrator 16.0.0, SVG Export Plug-In . SVG Version: 6.00 Build 0)  -->
<!DOCTYPE svg PUBLIC "-//W3C//DTD SVG 1.1//EN" "http://www.w3.org/Graphics/SVG/1.1/DTD/svg11.dtd">
<svg version="1.1" id="Layer_1" xmlns="http://www.w3.org/2000/svg" xmlns:xlink="http://www.w3.org/1999/xlink" x="0px" y="0px"
	 width="128px" height="128px" viewBox="0 0 128 128" enable-background="new 0 0 128 128" xml:space="preserve">
<g id="Layer_1_1_" display="none">
	
		<rect x="49.13" y="62.216" transform="matrix(-0.7071 -0.7071 0.7071 -0.7071 54.7448 150.677)" display="inline" fill="#524C5B" width="18.897" height="3.569"/>
	
		<rect x="59.972" y="62.218" transform="matrix(0.7071 -0.7071 0.7071 0.7071 -24.9239 67.8318)" display="inline" fill="#524C5B" width="18.897" height="3.568"/>
</g>
<g id="Layer_2">
	<path fill="#A0A0A0" d="M87.333,64c0,1.359-1.103,2.46-2.461,2.46H43.126c-1.359,0-2.46-1.103-2.46-2.46l0,0
		c0-1.359,1.102-2.46,2.46-2.46h41.746C86.23,61.54,87.333,62.642,87.333,64L87.333,64z"/>
	<path fill="#A0A0A0" d="M64,87.334c-1.359,0-2.46-1.102-2.46-2.461V43.127c0-1.359,1.102-2.46,2.46-2.46l0,0
		c1.359,0,2.46,1.102,2.46,2.46v41.746C66.46,86.232,65.357,87.334,64,87.334L64,87.334z"/>
</g>
</svg>
