<?xml version="1.0" encoding="utf-8"?>
<!-- Generator: Adobe Illustrator 16.0.0, SVG Export Plug-In . SVG Version: 6.00 Build 0)  -->
<!DOCTYPE svg PUBLIC "-//W3C//DTD SVG 1.1//EN" "http://www.w3.org/Graphics/SVG/1.1/DTD/svg11.dtd">
<svg version="1.1" xmlns="http://www.w3.org/2000/svg" xmlns:xlink="http://www.w3.org/1999/xlink" x="0px" y="0px" width="256px"
	 height="256px" viewBox="0 0 256 256" enable-background="new 0 0 256 256" xml:space="preserve">
<g id="Layer_1" display="none">
	
		<image display="inline" overflow="visible" opacity="0.3" width="3264" height="2448" xlink:href="../../../../../Downloads/IMG_2240.JPG"  transform="matrix(2.688944e-09 0.2209 -0.2255 2.634143e-09 411 -298)">
	</image>
</g>
<g id="Layer_2">
	<path fill="#FFFFFF" stroke="#9032C8" stroke-width="4" stroke-miterlimit="10" d="M203.214,8.189
		c3.722,2.627,4.611,7.774,1.985,11.498L87.316,186.79c-2.626,3.723-7.774,4.613-11.497,1.986l0,0
		c-3.723-2.627-4.612-7.773-1.986-11.497L191.715,10.175C194.343,6.451,199.49,5.562,203.214,8.189L203.214,8.189z"/>
	<path fill="#FFFFFF" stroke="#9032C8" stroke-width="4" stroke-miterlimit="10" d="M124.963,180.735
		c-1.93,4.583-7.21,6.733-11.793,4.806l-47.52-20.01c-4.583-1.93-6.734-7.211-4.804-11.794l0,0c1.93-4.583,7.209-6.733,11.793-4.806
		l47.521,20.011C124.741,170.871,126.894,176.151,124.963,180.735L124.963,180.735z"/>
	<path fill="#FFFFFF" stroke="#9032C8" stroke-width="4" stroke-miterlimit="10" d="M124.22,182.125
		c-1.701,3.016-5.667,4.146-12.704,2.375c-18.63-4.687-49.778-22.16-49.778-22.16S29.839,176,31.016,205.5
		c0.654,16.39,16.5,35.333,52,42.833s85.5,2.667,101-3.333c12.677-4.907-53.333-6.333-46.666-28.125
		C146.938,185.535,128.124,175.202,124.22,182.125z"/>
	<path fill="#FFFFFF" stroke="#9032C8" stroke-width="4" stroke-miterlimit="10" d="M96.948,250.594
		c0,0-41.932-13.094-22.432-46.594"/>
	<path fill="#9032C8" d="M225.016,182.125c0,1.312-1.063,2.375-2.375,2.375h-64.5c-1.312,0-2.375-1.063-2.375-2.375l0,0
		c0-1.312,1.063-2.375,2.375-2.375h64.5C223.952,179.75,225.016,180.813,225.016,182.125L225.016,182.125z"/>
	<path fill="#9032C8" d="M225.016,216.875c0,1.312-1.063,2.375-2.375,2.375h-51.25c-1.312,0-2.375-1.063-2.375-2.375l0,0
		c0-1.312,1.063-2.375,2.375-2.375h51.25C223.952,214.5,225.016,215.563,225.016,216.875L225.016,216.875z"/>
</g>
</svg>
